<svg xmlns="http://www.w3.org/2000/svg" xmlns:xlink="http://www.w3.org/1999/xlink" width="951" height="765.789" viewBox="0 0 951 765.789"><defs><style>.a{fill:#d6d4f6;}.ag,.b,.m{fill:#fff;}.c{fill:#0265c9;}.d{fill:#d4145a;}.ac,.ad,.ae,.af,.ag,.d,.e,.f,.g,.h,.i,.j,.k,.l,.m,.n,.q,.r,.s{stroke:#000;}.ae,.af,.d,.e,.i,.j,.k,.l,.n,.o{stroke-miterlimit:10;}.ac,.ad,.ae,.d,.e,.f,.g,.h,.i,.j,.k,.l,.m,.n,.o,.p,.q,.r,.s{stroke-width:2px;}.e,.f{fill:#45a357;}.ac,.ad,.ag,.ah,.f,.g,.h,.m,.p,.q,.r,.s{stroke-linecap:round;stroke-linejoin:round;}.ah,.g,.h,.n,.o,.p{fill:none;}.h{stroke-dasharray:16.57;}.i{fill:#f15b9a;}.j,.q{fill:#ffc1cd;}.k{fill:#080973;}.l{fill:#4445b3;}.o,.p{stroke:#ffc1cd;}.r{fill:#e6e6e6;}.s{fill:gray;}.t{fill:#a4a0dc;}.u{fill:#e8505b;}.v{opacity:0.3;}.w{fill:#ececec;}.x{fill:#f5f5f5;}.y{fill:#e1e1e1;}.z{fill:#263238;}.aa{fill:#455a64;}.ab{fill:#fcebe4;}.ac{fill:#f15a24;}.ad{fill:#ed7e93;}.ae,.af{fill:#0e0063;}.af{stroke-width:1.959px;}.ag{stroke-width:2.313px;}.ah{stroke:#2e3192;}.ai{filter:url(#a);}</style><filter id="a" x="0" y="256.789" width="951" height="509" filterUnits="userSpaceOnUse"><feOffset input="SourceAlpha"/><feGaussianBlur stdDeviation="25" result="b"/><feFlood flood-opacity="0.161"/><feComposite operator="in" in2="b"/><feComposite in="SourceGraphic"/></filter></defs><g transform="translate(-895 -170.211)"><g transform="translate(1366.753 170.211)"><g transform="translate(0)"><rect class="a" width="4.487" height="4.487"/><rect class="a" width="4.487" height="4.487" transform="translate(27.504)"/><rect class="a" width="4.487" height="4.487" transform="translate(55.008)"/><rect class="a" width="4.487" height="4.487" transform="translate(82.512)"/><rect class="a" width="4.487" height="4.487" transform="translate(110.015)"/><rect class="a" width="4.487" height="4.487" transform="translate(137.519)"/><rect class="a" width="4.487" height="4.487" transform="translate(165.023)"/><rect class="a" width="4.487" height="4.487" transform="translate(192.527)"/><rect class="a" width="4.487" height="4.487" transform="translate(220.031)"/><rect class="a" width="4.487" height="4.487" transform="translate(247.534)"/></g><g transform="translate(0 27.245)"><rect class="a" width="4.487" height="4.487"/><rect class="a" width="4.487" height="4.487" transform="translate(27.504)"/><rect class="a" width="4.487" height="4.487" transform="translate(55.008)"/><rect class="a" width="4.487" height="4.487" transform="translate(82.512)"/><rect class="a" width="4.487" height="4.487" transform="translate(110.015)"/><rect class="a" width="4.487" height="4.487" transform="translate(137.519)"/><rect class="a" width="4.487" height="4.487" transform="translate(165.023)"/><rect class="a" width="4.487" height="4.487" transform="translate(192.527)"/><rect class="a" width="4.487" height="4.487" transform="translate(220.031)"/><rect class="a" width="4.487" height="4.487" transform="translate(247.534)"/></g><g transform="translate(0 54.491)"><rect class="a" width="4.487" height="4.487"/><rect class="a" width="4.487" height="4.487" transform="translate(27.504)"/><rect class="a" width="4.487" height="4.487" transform="translate(55.008)"/><rect class="a" width="4.487" height="4.487" transform="translate(82.512)"/><rect class="a" width="4.487" height="4.487" transform="translate(110.015)"/><rect class="a" width="4.487" height="4.487" transform="translate(137.519)"/><rect class="a" width="4.487" height="4.487" transform="translate(165.023)"/><rect class="a" width="4.487" height="4.487" transform="translate(192.527)"/><rect class="a" width="4.487" height="4.487" transform="translate(220.031)"/><rect class="a" width="4.487" height="4.487" transform="translate(247.534)"/></g><g transform="translate(0 81.737)"><rect class="a" width="4.487" height="4.487"/><rect class="a" width="4.487" height="4.487" transform="translate(27.504)"/><rect class="a" width="4.487" height="4.487" transform="translate(55.008)"/><rect class="a" width="4.487" height="4.487" transform="translate(82.512)"/><rect class="a" width="4.487" height="4.487" transform="translate(110.015)"/><rect class="a" width="4.487" height="4.487" transform="translate(137.519)"/><rect class="a" width="4.487" height="4.487" transform="translate(165.023)"/><rect class="a" width="4.487" height="4.487" transform="translate(192.527)"/><rect class="a" width="4.487" height="4.487" transform="translate(220.031)"/><rect class="a" width="4.487" height="4.487" transform="translate(247.534)"/></g><g transform="translate(0 108.982)"><rect class="a" width="4.487" height="4.487"/><rect class="a" width="4.487" height="4.487" transform="translate(27.504)"/><rect class="a" width="4.487" height="4.487" transform="translate(55.008)"/><rect class="a" width="4.487" height="4.487" transform="translate(82.512)"/><rect class="a" width="4.487" height="4.487" transform="translate(110.015)"/><rect class="a" width="4.487" height="4.487" transform="translate(137.519)"/><rect class="a" width="4.487" height="4.487" transform="translate(165.023)"/><rect class="a" width="4.487" height="4.487" transform="translate(192.527)"/><rect class="a" width="4.487" height="4.487" transform="translate(220.031)"/><rect class="a" width="4.487" height="4.487" transform="translate(247.534)"/></g><g transform="translate(0 136.228)"><rect class="a" width="4.487" height="4.487"/><rect class="a" width="4.487" height="4.487" transform="translate(27.504)"/><rect class="a" width="4.487" height="4.487" transform="translate(55.008)"/><rect class="a" width="4.487" height="4.487" transform="translate(82.512)"/><rect class="a" width="4.487" height="4.487" transform="translate(110.015)"/><rect class="a" width="4.487" height="4.487" transform="translate(137.519)"/><rect class="a" width="4.487" height="4.487" transform="translate(165.023)"/><rect class="a" width="4.487" height="4.487" transform="translate(192.527)"/><rect class="a" width="4.487" height="4.487" transform="translate(220.031)"/><rect class="a" width="4.487" height="4.487" transform="translate(247.534)"/></g><g transform="translate(0 163.473)"><rect class="a" width="4.487" height="4.487"/><rect class="a" width="4.487" height="4.487" transform="translate(27.504)"/><rect class="a" width="4.487" height="4.487" transform="translate(55.008)"/><rect class="a" width="4.487" height="4.487" transform="translate(82.512)"/><rect class="a" width="4.487" height="4.487" transform="translate(110.015)"/><rect class="a" width="4.487" height="4.487" transform="translate(137.519)"/><rect class="a" width="4.487" height="4.487" transform="translate(165.023)"/><rect class="a" width="4.487" height="4.487" transform="translate(192.527)"/><rect class="a" width="4.487" height="4.487" transform="translate(220.031)"/><rect class="a" width="4.487" height="4.487" transform="translate(247.534)"/></g><g transform="translate(0 190.719)"><rect class="a" width="4.487" height="4.487"/><rect class="a" width="4.487" height="4.487" transform="translate(27.504)"/><rect class="a" width="4.487" height="4.487" transform="translate(55.008)"/><rect class="a" width="4.487" height="4.487" transform="translate(82.512)"/><rect class="a" width="4.487" height="4.487" transform="translate(110.015)"/><rect class="a" width="4.487" height="4.487" transform="translate(137.519)"/><rect class="a" width="4.487" height="4.487" transform="translate(165.023)"/><rect class="a" width="4.487" height="4.487" transform="translate(192.527)"/><rect class="a" width="4.487" height="4.487" transform="translate(220.031)"/><rect class="a" width="4.487" height="4.487" transform="translate(247.534)"/></g><g transform="translate(0 217.964)"><rect class="a" width="4.487" height="4.487"/><rect class="a" width="4.487" height="4.487" transform="translate(27.504)"/><rect class="a" width="4.487" height="4.487" transform="translate(55.008)"/><rect class="a" width="4.487" height="4.487" transform="translate(82.512)"/><rect class="a" width="4.487" height="4.487" transform="translate(110.015)"/><rect class="a" width="4.487" height="4.487" transform="translate(137.519)"/><rect class="a" width="4.487" height="4.487" transform="translate(165.023)"/><rect class="a" width="4.487" height="4.487" transform="translate(192.527)"/><rect class="a" width="4.487" height="4.487" transform="translate(220.031)"/><rect class="a" width="4.487" height="4.487" transform="translate(247.534)"/></g><g transform="translate(0 245.21)"><rect class="a" width="4.487" height="4.487"/><rect class="a" width="4.487" height="4.487" transform="translate(27.504)"/><rect class="a" width="4.487" height="4.487" transform="translate(55.008)"/><rect class="a" width="4.487" height="4.487" transform="translate(82.512)"/><rect class="a" width="4.487" height="4.487" transform="translate(110.015)"/><rect class="a" width="4.487" height="4.487" transform="translate(137.519)"/><rect class="a" width="4.487" height="4.487" transform="translate(165.023)"/><rect class="a" width="4.487" height="4.487" transform="translate(192.527)"/><rect class="a" width="4.487" height="4.487" transform="translate(220.031)"/><rect class="a" width="4.487" height="4.487" transform="translate(247.534)"/></g><g transform="translate(0 272.456)"><rect class="a" width="4.487" height="4.487"/><rect class="a" width="4.487" height="4.487" transform="translate(27.504)"/><rect class="a" width="4.487" height="4.487" transform="translate(55.008)"/><rect class="a" width="4.487" height="4.487" transform="translate(82.512)"/><rect class="a" width="4.487" height="4.487" transform="translate(110.015)"/><rect class="a" width="4.487" height="4.487" transform="translate(137.519)"/><rect class="a" width="4.487" height="4.487" transform="translate(165.023)"/><rect class="a" width="4.487" height="4.487" transform="translate(192.527)"/><rect class="a" width="4.487" height="4.487" transform="translate(220.031)"/><rect class="a" width="4.487" height="4.487" transform="translate(247.534)"/></g></g><g class="ai" transform="matrix(1, 0, 0, 1, 895, 170.21)"><rect class="b" width="801" height="359" rx="60" transform="translate(75 331.79)"/></g><path class="c" d="M3166.783,5853.167s-122.368,2.759-98.115-168.328a76.267,76.267,0,0,0,.822-12.64c-.325-12.887,5.522-52.974,80.2-101.981,62.864-41.255,80.115-84.768,84.768-107.8a76.122,76.122,0,0,0,1.165-21.162c-1.6-20-3.029-99.028,73.431-106.16,1.735-.161,4.584-.283,6.325-.349,6.542-.243,34.774-4.049,67.731-49.329,16.325-22.429,43.318-35,70.881-31.864,23.622,2.684,51.692,16.617,79.753,55.513a77.984,77.984,0,0,0,37.841,27.763c24,8.343,57.3,30.653,51.489,90.027-.242,2.48-.626,4.949-1.105,7.4-3.309,16.834-17.05,109.033,70.208,144.356a80.121,80.121,0,0,1,12.418,6.24c23.333,14.564,96.271,66.079,90.6,137.864a77.385,77.385,0,0,0,.047,13.11c1.79,19.736-.172,82.426-90.662,113.144a78.711,78.711,0,0,1-25.291,4.2H3172.48" transform="translate(-2058.487 -5029.08)"/><path class="c" d="M3702.4,3318.4h0a62.1,62.1,0,0,1,62.1-62.1v-30.45a92.55,92.55,0,0,0-92.55,92.55h30.45Z" transform="translate(-1993.5 -2457.4)"/><ellipse class="d" cx="8.748" cy="5.06" rx="8.748" ry="5.06" transform="translate(1114.584 816.949) rotate(-45)"/><g transform="translate(1069.955 576.958)"><g transform="translate(55.207 18.256)"><path class="e" d="M1943.5,4618.255s-105.742,56.294-29.669,227.46H2042.4S2072.064,4650.967,1943.5,4618.255Z" transform="translate(-1886.306 -4618.255)"/><path class="f" d="M1940.776,4663.989s4.565,142.257,33.092,174.969" transform="translate(-1878.257 -4611.497)"/><path class="f" d="M1976.8,4682.547s-31.9,10.009-32.689,35.053" transform="translate(-1877.764 -4608.754)"/><path class="f" d="M1905.649,4740.336s36.508-6.582,49.824,14.206" transform="translate(-1883.448 -4600.36)"/><path class="f" d="M1975.038,4766.057a28.966,28.966,0,0,0-19.013,22.874" transform="translate(-1876.003 -4596.413)"/></g><g transform="translate(0 125.521)"><path class="e" d="M1876.818,4832.666s-64.663-38.8-26.626-120.957c0,0,99.656-.761,82.92,120.957Z" transform="translate(-1838.208 -4711.709)"/><path class="g" d="M1865.881,4740.209s9.434,64.661,38.57,88.245" transform="translate(-1834.118 -4707.497)"/><path class="g" d="M1883.38,4742.86s-9.128,31.951-6.847,43.362" transform="translate(-1832.598 -4707.105)"/><path class="g" d="M1859.916,4781.964s5.125,7.054,23.483,9.233" transform="translate(-1834.999 -4701.326)"/></g><g transform="translate(20.383)"><path class="f" d="M1857.457,4673.1s-11.41-57.815,28.908-70.748C1886.365,4602.35,1922.881,4657.122,1857.457,4673.1Z" transform="translate(-1855.966 -4602.35)"/><path class="f" d="M1857.265,4669.474s20.54-22.822,22.823-42.6" transform="translate(-1855.774 -4598.726)"/></g></g><path class="h" d="M1995.4,4493.652s-85.4,120.152,48.587,163.536c0,0,290.7-81.376,315.044,17.52s-54.012,105.742-54.012,105.742" transform="translate(-748.986 -4041.456)"/><path class="i" d="M1968.414,4772.972s.381-128.948,138.834-148.728c0,0,29.968-3.254,30.579-46.509h28.612s-12.025,59.443,45.03,48.032c0,0,70.748-27.386,155.189,158.232,0,0,29.668,50.209-21.3,68.466H2001.184Z" transform="translate(-749.01 -4029.031)"/><ellipse class="j" cx="39.558" cy="19.779" rx="39.558" ry="19.779" transform="translate(1108.882 807.146) rotate(-20.234)"/><ellipse class="j" cx="20.92" cy="33.092" rx="20.92" ry="33.092" transform="translate(1146.754 761.815)"/><path class="j" d="M1981.078,4747.5c-37.277,0-49.448,28.51-49.448,46.786s9.366,33.091,20.92,33.091c6.526,0,12.353-4.728,16.188-12.134a35,35,0,1,0,12.34-67.743Z" transform="translate(-754.446 -4003.942)"/><ellipse class="j" cx="39.558" cy="19.779" rx="39.558" ry="19.779" transform="translate(1206.852 786.159)"/><path class="k" d="M2211.675,4808.685h-159.18a11.853,11.853,0,0,1-11.681-9.843l-15.021-87.238a15.208,15.208,0,0,1,14.988-17.79h186.073a15.208,15.208,0,0,1,14.878,18.362l-18.461,87.112A11.853,11.853,0,0,1,2211.675,4808.685Z" transform="translate(-740.563 -4007.876)"/><rect class="l" width="178.772" height="22.822" rx="5.899" transform="translate(1301.944 800.809)"/><ellipse class="d" cx="8.748" cy="6.847" rx="8.748" ry="6.847" transform="translate(1213.699 799.091)"/><ellipse class="d" cx="5.706" cy="8.748" rx="5.706" ry="8.748" transform="matrix(0.817, -0.577, 0.577, 0.817, 1150.739, 814.259)"/><ellipse class="d" cx="5.706" cy="8.748" rx="5.706" ry="8.748" transform="matrix(0.817, -0.577, 0.577, 0.817, 1181.168, 808.934)"/><line class="m" y1="12.634" x2="8.693" transform="translate(1226.306 776.269)"/><path class="n" d="M2064.146,4624.3l66.23,31.818,41.693-36.684" transform="translate(-734.862 -4022.867)"/><circle class="o" cx="18.258" cy="18.258" r="18.258" transform="translate(1287.49 624.883)"/><circle class="o" cx="9.89" cy="9.89" r="9.89" transform="translate(1496.692 641.62)"/><line class="g" y1="11.193" x2="51.946" transform="translate(1489.629 743.558)"/><line class="g" x1="11.519" y2="22.333" transform="translate(1515.602 726.821)"/><path class="p" d="M2320.183,4754.958c-1.182-.1-2.377-.168-3.587-.168a40.318,40.318,0,0,0-25.548,71.509" transform="translate(-703.512 -4002.864)"/><path class="q" d="M2130.524,4664.362l43.174-38.672c-27.732-8.538-21.259-45.875-21.259-45.875h-28.611c-.611,43.256-31.233,44.5-31.233,44.5-10.414,1.487-21.046,4.566-29.956,7.188Z" transform="translate(-735.085 -4028.723)"/><g transform="translate(1224.197 378.363)"><path class="m" d="M1972.59,4452.757l23.411,8.454,74.124-31.885Z" transform="translate(-1972.59 -4429.326)"/><path class="r" d="M1992.987,4461.211l1.414,37.216,15.742-29.6,56.968-39.5Z" transform="translate(-1969.575 -4429.326)"/><path class="m" d="M2007.934,4468.826l5.254,35.079,51.714-74.579Z" transform="translate(-1967.366 -4429.326)"/><path class="s" d="M1994.219,4493.342l18.3-12.532-2.557-17.07Z" transform="translate(-1969.393 -4424.24)"/></g><g transform="translate(1449.646 666.221)"><rect class="t" width="6.224" height="6.224" transform="translate(0)"/><rect class="t" width="6.224" height="6.224" transform="translate(11.183)"/><rect class="t" width="6.224" height="6.224" transform="translate(22.367)"/><rect class="t" width="6.224" height="6.224" transform="translate(33.55)"/><rect class="t" width="6.224" height="6.224" transform="translate(44.733)"/><rect class="t" width="6.224" height="6.224" transform="translate(55.917)"/><rect class="t" width="6.224" height="6.224" transform="translate(0 10.6)"/><rect class="t" width="6.224" height="6.224" transform="translate(11.183 10.6)"/><rect class="t" width="6.224" height="6.224" transform="translate(22.367 10.6)"/><rect class="t" width="6.224" height="6.224" transform="translate(33.55 10.6)"/><rect class="t" width="6.224" height="6.224" transform="translate(44.733 10.6)"/><rect class="t" width="6.224" height="6.224" transform="translate(55.917 10.6)"/><rect class="t" width="6.224" height="6.224" transform="translate(0 21.2)"/><rect class="t" width="6.224" height="6.224" transform="translate(11.183 21.2)"/><rect class="t" width="6.224" height="6.224" transform="translate(22.367 21.2)"/><rect class="t" width="6.224" height="6.224" transform="translate(33.55 21.2)"/><rect class="t" width="6.224" height="6.224" transform="translate(44.733 21.2)"/><rect class="t" width="6.224" height="6.224" transform="translate(55.917 21.2)"/><rect class="t" width="6.224" height="6.224" transform="translate(0 31.799)"/><rect class="t" width="6.224" height="6.224" transform="translate(11.183 31.799)"/><rect class="t" width="6.224" height="6.224" transform="translate(22.367 31.799)"/><rect class="t" width="6.224" height="6.224" transform="translate(33.55 31.799)"/><rect class="t" width="6.224" height="6.224" transform="translate(44.733 31.799)"/><rect class="t" width="6.224" height="6.224" transform="translate(55.917 31.799)"/><rect class="t" width="6.224" height="6.224" transform="translate(0 42.4)"/><rect class="t" width="6.224" height="6.224" transform="translate(11.183 42.4)"/><rect class="t" width="6.224" height="6.224" transform="translate(22.367 42.4)"/><rect class="t" width="6.224" height="6.224" transform="translate(33.55 42.4)"/><rect class="t" width="6.224" height="6.224" transform="translate(44.733 42.4)"/><rect class="t" width="6.224" height="6.224" transform="translate(55.917 42.4)"/><rect class="t" width="6.224" height="6.224" transform="translate(0 52.999)"/><rect class="t" width="6.224" height="6.224" transform="translate(11.183 52.999)"/><rect class="t" width="6.224" height="6.224" transform="translate(22.367 52.999)"/><rect class="t" width="6.224" height="6.224" transform="translate(33.55 52.999)"/><rect class="t" width="6.224" height="6.224" transform="translate(44.733 52.999)"/><rect class="t" width="6.224" height="6.224" transform="translate(55.917 52.999)"/></g><g transform="translate(1238.019 718.755)"><g transform="translate(0.235 0.235)"><rect class="b" width="148.549" height="60.338"/></g><path class="u" d="M2133.416,4786.463s-.012-.371-.018-1.078-.01-1.761-.018-3.13c-.009-2.753-.023-6.8-.04-12.008-.022-10.414-.052-25.478-.09-44.122l.166.165-148.54.07h-.009l.234-.235c0,21.129-.007,41.525-.009,60.338l-.225-.225,106.505.107,30.9.062,8.27.029,2.14.014c.482,0,.736.014.736.014s-.236.009-.708.015l-2.114.014c-1.879.005-4.642.016-8.223.028l-30.844.063-106.659.106h-.226v-.226c0-18.812-.006-39.208-.009-60.338v-.235h.244l148.54.07h.165v.165c-.038,18.686-.069,33.785-.09,44.222-.018,5.195-.032,9.228-.041,11.972-.008,1.356-.014,2.393-.019,3.1S2133.416,4786.463,2133.416,4786.463Z" transform="translate(-1984.632 -4725.89)"/><g transform="translate(0.383 8.138)"><path class="u" d="M1984.966,4733.215c0-.131,33.2-.235,74.153-.235s74.161.1,74.161.235-33.2.234-74.161.234S1984.966,4733.345,1984.966,4733.215Z" transform="translate(-1984.966 -4732.979)"/></g><g transform="translate(4.447 3.655)"><g class="v"><path class="u" d="M1990.661,4730.153a1.078,1.078,0,1,1-1.078-1.079A1.079,1.079,0,0,1,1990.661,4730.153Z" transform="translate(-1988.506 -4729.074)"/></g><g class="v" transform="translate(3.694)"><path class="u" d="M1993.879,4730.153a1.078,1.078,0,1,1-1.078-1.079A1.078,1.078,0,0,1,1993.879,4730.153Z" transform="translate(-1991.724 -4729.074)"/></g><g class="v" transform="translate(7.334)"><path class="u" d="M1997.053,4730.153a1.078,1.078,0,1,1-1.079-1.079A1.079,1.079,0,0,1,1997.053,4730.153Z" transform="translate(-1994.896 -4729.074)"/></g></g><g class="v" transform="translate(12.859 18.18)"><rect class="u" width="35.88" height="35.88"/></g><g transform="translate(56.033 27.559)"><path class="u" d="M2115.923,4750.136c0,.13-18.463.235-41.234.235s-41.239-.105-41.239-.235,18.46-.235,41.239-.235S2115.923,4750.007,2115.923,4750.136Z" transform="translate(-2033.45 -4749.901)"/><g transform="translate(0 7.31)"><path class="u" d="M2115.923,4756.5c0,.13-18.463.235-41.234.235s-41.239-.105-41.239-.235,18.46-.235,41.239-.235S2115.923,4756.374,2115.923,4756.5Z" transform="translate(-2033.45 -4756.27)"/></g><g transform="translate(0 14.62)"><path class="u" d="M2086.541,4762.873a2.323,2.323,0,0,1-.539.047l-1.546.045-5.69.075-18.768.069-18.772-.069-5.689-.075-1.546-.045a2.337,2.337,0,0,1-.54-.047,2.386,2.386,0,0,1,.54-.047l1.546-.044,5.689-.075,18.772-.069,18.768.069,5.69.075,1.546.044A2.372,2.372,0,0,1,2086.541,4762.873Z" transform="translate(-2033.45 -4762.638)"/></g></g></g><g transform="translate(1030.143 421.747)"><g transform="translate(1.831 1.251)"><path class="w" d="M1805.117,4473.373l.165,3.1a2.628,2.628,0,0,1,1.687-.735,2.685,2.685,0,0,1,.287,5.361,2.625,2.625,0,0,1-1.756-.55l.166,3.107a2.633,2.633,0,0,1,1.687-.735,2.685,2.685,0,0,1,.287,5.363,2.642,2.642,0,0,1-1.756-.55l.167,3.105a2.63,2.63,0,0,1,1.687-.734,2.685,2.685,0,0,1,.287,5.362,2.642,2.642,0,0,1-1.756-.55l.167,3.106a2.628,2.628,0,0,1,1.687-.734,2.685,2.685,0,0,1,.287,5.361,2.629,2.629,0,0,1-1.756-.55l.167,3.106a2.631,2.631,0,0,1,1.687-.733,2.685,2.685,0,0,1,.287,5.361,2.635,2.635,0,0,1-1.756-.55l.167,3.106a2.637,2.637,0,0,1,1.687-.734,2.685,2.685,0,0,1,.287,5.361,2.624,2.624,0,0,1-1.756-.55l.1,1.928,82.747-1.985-4.193-48.2Z" transform="translate(-1805.117 -4468.214)"/></g><path class="x" d="M1803.522,4471.55l.167,3.1a2.627,2.627,0,0,1,1.687-.733,2.684,2.684,0,0,1,.287,5.361,2.622,2.622,0,0,1-1.756-.55l.166,3.106a2.637,2.637,0,0,1,1.687-.733,2.685,2.685,0,0,1,.287,5.362,2.63,2.63,0,0,1-1.756-.55l.167,3.107a2.631,2.631,0,0,1,1.687-.735,2.685,2.685,0,0,1,.287,5.361,2.631,2.631,0,0,1-1.756-.549l.165,3.106a2.636,2.636,0,0,1,1.688-.734,2.685,2.685,0,0,1,.287,5.362,2.636,2.636,0,0,1-1.756-.55l.165,3.106a2.633,2.633,0,0,1,1.688-.733,2.685,2.685,0,0,1,.286,5.361,2.64,2.64,0,0,1-1.756-.55l.166,3.106a2.637,2.637,0,0,1,1.687-.733,2.685,2.685,0,0,1,.287,5.361,2.636,2.636,0,0,1-1.756-.55l.1,1.927,82.728-4.426-2.409-45.024Z" transform="translate(-1803.522 -4467.124)"/><g transform="translate(0.477 8.889)"><path class="y" d="M1886.664,4474.889c.009.164-18.5,1.289-41.345,2.512s-41.373,2.08-41.381,1.914,18.5-1.289,41.349-2.511S1886.655,4474.724,1886.664,4474.889Z" transform="translate(-1803.938 -4474.868)"/></g><g transform="translate(0.862 16.093)"><path class="y" d="M1887,4481.165c.009.164-18.5,1.289-41.345,2.511s-41.373,2.08-41.382,1.915,18.5-1.289,41.35-2.511S1886.991,4481,1887,4481.165Z" transform="translate(-1804.273 -4481.144)"/></g><g transform="translate(1.248 23.295)"><path class="y" d="M1887.337,4487.439c.008.166-18.5,1.29-41.346,2.513s-41.373,2.08-41.382,1.914,18.5-1.289,41.35-2.511S1887.328,4487.275,1887.337,4487.439Z" transform="translate(-1804.609 -4487.419)"/></g><g transform="translate(1.633 30.498)"><path class="y" d="M1887.672,4493.716c.009.165-18.5,1.29-41.345,2.512s-41.372,2.079-41.381,1.915,18.5-1.289,41.35-2.512S1887.664,4493.551,1887.672,4493.716Z" transform="translate(-1804.945 -4493.695)"/></g><g transform="translate(2.019 37.701)"><path class="y" d="M1888.007,4499.991c.009.166-18.5,1.29-41.345,2.511s-41.373,2.08-41.381,1.917,18.5-1.289,41.349-2.513S1888,4499.828,1888.007,4499.991Z" transform="translate(-1805.281 -4499.971)"/></g><g transform="translate(11.216 3.795)"><rect class="u" width="0.574" height="45.089" transform="translate(0 0.031) rotate(-3.063)"/></g><g transform="translate(18.96 3.409)"><path class="y" d="M1822.487,4515.119c-.165.008-.838-10.063-1.5-22.5s-1.071-22.521-.906-22.53.838,10.062,1.5,22.5S1822.651,4515.11,1822.487,4515.119Z" transform="translate(-1820.041 -4470.094)"/></g><g transform="translate(4.233 4.197)"><path class="y" d="M1809.656,4515.8c-.165.01-.838-10.063-1.5-22.495s-1.071-22.52-.906-22.529.838,10.062,1.5,22.5S1809.82,4515.8,1809.656,4515.8Z" transform="translate(-1807.21 -4470.781)"/></g><g transform="translate(27.026 2.977)"><path class="y" d="M1829.514,4514.743c-.165.008-.838-10.063-1.5-22.5s-1.071-22.521-.906-22.53.838,10.063,1.5,22.5S1829.679,4514.734,1829.514,4514.743Z" transform="translate(-1827.068 -4469.718)"/></g><g transform="translate(35.092 2.546)"><path class="y" d="M1836.541,4514.367c-.165.008-.838-10.064-1.5-22.5s-1.071-22.521-.907-22.53.838,10.063,1.5,22.5S1836.706,4514.358,1836.541,4514.367Z" transform="translate(-1834.095 -4469.341)"/></g><g transform="translate(43.157 2.114)"><path class="y" d="M1843.568,4513.991c-.164.009-.838-10.063-1.5-22.495s-1.071-22.521-.907-22.53.838,10.063,1.5,22.5S1843.733,4513.982,1843.568,4513.991Z" transform="translate(-1841.122 -4468.966)"/></g><g transform="translate(51.223 1.682)"><path class="y" d="M1850.595,4513.615c-.164.008-.838-10.064-1.5-22.5s-1.071-22.521-.906-22.53.837,10.063,1.5,22.5S1850.76,4513.606,1850.595,4513.615Z" transform="translate(-1848.15 -4468.59)"/></g><g transform="translate(59.289 1.251)"><path class="y" d="M1857.623,4513.239c-.165.008-.838-10.064-1.5-22.5s-1.071-22.521-.906-22.53.837,10.063,1.5,22.5S1857.787,4513.23,1857.623,4513.239Z" transform="translate(-1855.177 -4468.214)"/></g><g transform="translate(67.354 0.819)"><path class="y" d="M1864.65,4512.863c-.165.008-.838-10.064-1.5-22.5s-1.071-22.52-.906-22.53.838,10.063,1.5,22.5S1864.814,4512.854,1864.65,4512.863Z" transform="translate(-1862.204 -4467.838)"/></g><g transform="translate(75.42 0.388)"><path class="y" d="M1871.677,4512.487c-.165.008-.838-10.063-1.5-22.5s-1.071-22.52-.906-22.53.838,10.063,1.5,22.5S1871.841,4512.478,1871.677,4512.487Z" transform="translate(-1869.231 -4467.461)"/></g><g transform="translate(18.761 18.119)"><path class="z" d="M1877.967,4482.939a2.219,2.219,0,0,1-.586.09l-1.689.146-6.22.42c-5.253.327-12.513.733-20.534,1.131s-15.29.7-20.552.869-8.53.182-8.518,0l29.04-1.463,20.542-.956,6.229-.229c.679-.014,1.24-.025,1.7-.033A2.218,2.218,0,0,1,1877.967,4482.939Z" transform="translate(-1819.867 -4482.91)"/></g><g transform="translate(18.89 26.341)"><path class="z" d="M1879.625,4490.106c.008.165-13.339.911-29.807,1.667s-29.831,1.234-29.838,1.069,13.336-.911,29.81-1.666S1879.618,4489.942,1879.625,4490.106Z" transform="translate(-1819.98 -4490.074)"/></g><g transform="translate(19.774 33.545)"><path class="z" d="M1880.395,4496.382c.008.166-13.338.912-29.807,1.667s-29.83,1.233-29.838,1.069,13.336-.911,29.81-1.666S1880.388,4496.218,1880.395,4496.382Z" transform="translate(-1820.75 -4496.35)"/></g><g transform="translate(9.26 5.173)"><path class="y" d="M1811.59,4475.607a7.235,7.235,0,0,0,2.645,4.638,4.729,4.729,0,1,0,1.739-8.527" transform="translate(-1811.59 -4471.631)"/></g><g transform="translate(6.896 5.168)"><g transform="translate(2.16)"><path class="aa" d="M1811.417,4475.593a3.764,3.764,0,1,0,3.557-3.96A3.764,3.764,0,0,0,1811.417,4475.593Z" transform="translate(-1811.412 -4471.627)"/></g><g transform="translate(0 0.194)"><path class="aa" d="M1809.533,4474.177a2.259,2.259,0,1,0,2.135-2.377A2.258,2.258,0,0,0,1809.533,4474.177Z" transform="translate(-1809.53 -4471.796)"/></g><g transform="translate(2.106 0.637)"><path class="z" d="M1811.366,4476.208c.017-.091.355-.06.815-.232a2.155,2.155,0,0,0,1.284-1.248,2.323,2.323,0,0,0-.173-1.8c-.228-.439-.491-.648-.443-.726.029-.064.412.025.794.492a2.378,2.378,0,0,1,.385,2.237,2.265,2.265,0,0,1-1.743,1.457C1811.683,4476.476,1811.342,4476.274,1811.366,4476.208Z" transform="translate(-1811.365 -4472.182)"/></g><g transform="translate(3.987 0.486)"><path class="z" d="M1813.016,4472.635c.08-.146.646.024,1.277-.128s1.07-.539,1.206-.442c.149.067-.173.809-1.072,1.025C1813.524,4473.287,1812.91,4472.76,1813.016,4472.635Z" transform="translate(-1813.004 -4472.05)"/></g><g transform="translate(2.363 4.557)"><path class="z" d="M1813.806,4477.831c-.167.013-.325-.7-.917-1.249s-1.3-.677-1.3-.843c-.039-.161.907-.337,1.71.409C1814.089,4476.907,1813.968,4477.861,1813.806,4477.831Z" transform="translate(-1811.589 -4475.597)"/></g></g><g transform="translate(72.851 2.518)"><path class="y" d="M1866.993,4473.292a7.236,7.236,0,0,0,2.644,4.638,4.729,4.729,0,1,0,1.739-8.526" transform="translate(-1866.993 -4469.317)"/></g><g transform="translate(72.852 1.846)"><g transform="translate(0 0.184)"><path class="u" d="M1874.263,4472.335a3.637,3.637,0,1,1-3.827-3.437A3.637,3.637,0,0,1,1874.263,4472.335Z" transform="translate(-1866.993 -4468.892)"/></g><g transform="translate(4.841)"><path class="u" d="M1875.573,4470.8a2.183,2.183,0,1,1-2.3-2.063A2.182,2.182,0,0,1,1875.573,4470.8Z" transform="translate(-1871.211 -4468.732)"/></g><g transform="translate(4.485 0.579)"><path class="z" d="M1873.814,4472.948c.03.063-.277.3-.865.273a2.191,2.191,0,0,1-1.834-1.222,2.3,2.3,0,0,1,.142-2.2c.321-.489.682-.613.719-.551.056.071-.173.3-.344.747a2.249,2.249,0,0,0,.022,1.741,2.079,2.079,0,0,0,1.354,1.064C1873.466,4472.923,1873.787,4472.86,1873.814,4472.948Z" transform="translate(-1870.901 -4469.236)"/></g><g transform="translate(2.736 0.721)"><path class="z" d="M1871.85,4469.673c.118.114-.418.69-1.311.593-.891-.115-1.276-.8-1.134-.884.125-.11.585.224,1.205.29C1871.228,4469.754,1871.754,4469.537,1871.85,4469.673Z" transform="translate(-1869.377 -4469.36)"/></g><g transform="translate(5.077 4.245)"><path class="z" d="M1871.58,4474.776c-.158.046-.378-.861.305-1.677.7-.8,1.63-.727,1.608-.564.021.167-.656.357-1.154.952S1871.748,4474.771,1871.58,4474.776Z" transform="translate(-1871.416 -4472.43)"/></g></g></g><g transform="translate(1558.489 708.565)"><g transform="translate(4.835 4.258)"><path class="u" d="M2285.757,4792.777c-11.225-6.508-17.23-21.646-17.678-34.036s4.71-25.316,14.872-32.419c10.7-7.482,25.946-7.349,36.943-.306s17.44,20.334,16.942,33.383-7.611,25.513-18.13,33.25" transform="translate(-2268.052 -4720.722)"/></g><g transform="translate(37.24 5.449)"><path class="b" d="M2299.5,4793.821a14.818,14.818,0,0,1-.208-2.835c-.057-2.026-.131-4.622-.218-7.729-.168-6.524-.423-15.534-.859-25.478s-.975-18.948-1.381-25.461c-.186-3.1-.34-5.693-.461-7.717a14.736,14.736,0,0,1-.041-2.842,14.78,14.78,0,0,1,.45,2.807c.224,1.814.5,4.443.794,7.7.6,6.5,1.25,15.508,1.691,25.47s.575,18.984.552,25.518c-.011,3.266-.052,5.909-.116,7.735A14.6,14.6,0,0,1,2299.5,4793.821Z" transform="translate(-2296.284 -4721.759)"/></g><g transform="translate(0.272 38.53)"><path class="z" d="M2271.986,4751.522c-.024.29-1.813.38-4,.2s-3.936-.561-3.912-.85,1.813-.379,4-.2S2272.01,4751.232,2271.986,4751.522Z" transform="translate(-2264.077 -4750.582)"/></g><g transform="translate(2.318 25.407)"><path class="z" d="M2272.337,4742.1c-.118.266-1.662-.162-3.449-.955s-3.141-1.65-3.022-1.916,1.662.162,3.449.955S2272.454,4741.832,2272.337,4742.1Z" transform="translate(-2265.859 -4739.147)"/></g><g transform="translate(8.073 14.769)"><path class="z" d="M2277.315,4735.213c-.15.241-1.886-.576-3.69-2.073s-2.937-3.047-2.727-3.238,1.646.983,3.4,2.428S2277.475,4734.964,2277.315,4735.213Z" transform="translate(-2270.873 -4729.879)"/></g><g transform="translate(17.433 6.078)"><path class="z" d="M2281.864,4728.549c-.266.117-1.1-1.184-1.858-2.9s-1.162-3.211-.9-3.33,1.1,1.184,1.858,2.905S2282.129,4728.431,2281.864,4728.549Z" transform="translate(-2279.028 -4722.308)"/></g><g transform="translate(27.013)"><path class="z" d="M2289.655,4723.806c-.258.122-1.155-1.263-1.75-3.181s-.646-3.565-.364-3.612.791,1.455,1.369,3.3S2289.923,4723.683,2289.655,4723.806Z" transform="translate(-2287.374 -4717.012)"/></g><g transform="translate(42.483 0.56)"><path class="z" d="M2302.724,4717.507c.273.1.107,1.278-.374,2.64s-1.092,2.385-1.366,2.288-.107-1.276.374-2.638S2302.449,4717.41,2302.724,4717.507Z" transform="translate(-2300.853 -4717.5)"/></g><g transform="translate(51.577 5.32)"><path class="z" d="M2312.723,4721.688c.2.213-.519,1.2-1.6,2.2s-2.118,1.639-2.315,1.425.519-1.2,1.6-2.2S2312.526,4721.475,2312.723,4721.688Z" transform="translate(-2308.775 -4721.647)"/></g><g transform="translate(60.847 11.649)"><path class="z" d="M2321.365,4727.223c.163.241-.711,1.117-1.952,1.958s-2.378,1.327-2.541,1.086.711-1.116,1.953-1.957S2321.2,4726.982,2321.365,4727.223Z" transform="translate(-2316.852 -4727.161)"/></g><g transform="translate(65.771 21.099)"><path class="z" d="M2327.713,4735.477c.115.268-1.262,1.11-3.076,1.883s-3.375,1.184-3.488.916,1.263-1.11,3.076-1.883S2327.6,4735.209,2327.713,4735.477Z" transform="translate(-2321.142 -4735.395)"/></g><g transform="translate(68.703 31.249)"><path class="z" d="M2330.084,4744.5c.037.288-1.365.7-3.127.917s-3.223.161-3.26-.127,1.366-.7,3.13-.917S2330.05,4744.208,2330.084,4744.5Z" transform="translate(-2323.696 -4744.237)"/></g><g transform="translate(70.267 41.419)"><path class="z" d="M2331.316,4755.9c-.116.266-1.609-.126-3.334-.876s-3.031-1.575-2.916-1.841,1.609.125,3.334.876S2331.43,4755.633,2331.316,4755.9Z" transform="translate(-2325.059 -4753.099)"/></g><g transform="translate(68.346 50.598)"><path class="z" d="M2330.3,4765.625c-.092.265-1.98-.184-3.952-1.479s-3.147-2.834-2.942-3.025c.214-.211,1.647.932,3.517,2.145S2330.409,4765.345,2330.3,4765.625Z" transform="translate(-2323.386 -4761.095)"/></g><g transform="translate(64.444 59.557)"><path class="z" d="M2325.126,4774.4c-.174.226-1.676-.656-3.117-2.214s-2.217-3.116-1.98-3.273,1.365,1.072,2.75,2.558S2325.31,4774.172,2325.126,4774.4Z" transform="translate(-2319.986 -4768.901)"/></g><g transform="translate(8.111 66.171)"><path class="z" d="M2278.447,4774.718c.134.258-1.444,1.344-3.523,2.428s-3.876,1.753-4.01,1.494,1.444-1.344,3.523-2.427S2278.313,4774.461,2278.447,4774.718Z" transform="translate(-2270.906 -4774.663)"/></g><g transform="translate(4.632 57.162)"><path class="z" d="M2273.969,4766.9c.121.265-1.144,1.1-2.825,1.858s-3.14,1.165-3.261.9,1.145-1.1,2.826-1.86S2273.849,4766.63,2273.969,4766.9Z" transform="translate(-2267.875 -4766.813)"/></g><g transform="translate(0 49.067)"><path class="z" d="M2270.944,4759.982c.041.287-1.516.746-3.478,1.025s-3.584.271-3.626-.018,1.516-.746,3.479-1.025S2270.9,4759.694,2270.944,4759.982Z" transform="translate(-2263.839 -4759.761)"/></g><g transform="translate(11.882 44.77)"><path class="z" d="M2281.292,4756.15c.086.271-1.432.98-3.459,1.206s-3.665-.121-3.641-.4c.02-.3,1.6-.421,3.522-.644S2281.207,4755.865,2281.292,4756.15Z" transform="translate(-2274.192 -4756.018)"/></g><g transform="translate(23.191 34.917)"><path class="z" d="M2289.7,4747.6c.085.271-1.124.884-2.755,1.041s-2.935-.2-2.9-.484,1.286-.409,2.8-.562S2289.618,4747.317,2289.7,4747.6Z" transform="translate(-2284.044 -4747.434)"/></g><g transform="translate(25.228 25.195)"><path class="z" d="M2291.326,4740.987c-.094.274-1.4.071-2.922-.453s-2.674-1.174-2.579-1.449,1.4-.07,2.922.455S2291.421,4740.713,2291.326,4740.987Z" transform="translate(-2285.819 -4738.963)"/></g><g transform="translate(32.024 15.492)"><path class="z" d="M2294.069,4734.283c-.2.2-1.1-.392-1.742-1.506s-.707-2.188-.431-2.262.768.75,1.343,1.736S2294.282,4734.079,2294.069,4734.283Z" transform="translate(-2291.74 -4730.509)"/></g><g transform="translate(25.127 51.652)"><path class="z" d="M2290.6,4762.19c.069.283-1.065.8-2.531,1.161a9.767,9.767,0,0,1-2.127.313l-.208-.614c.379-.069.625-.053.674.06s-.106.3-.413.536l-.208-.614a9.686,9.686,0,0,1,2.032-.7C2289.282,4761.97,2290.527,4761.908,2290.6,4762.19Z" transform="translate(-2285.731 -4762.014)"/></g><g transform="translate(25.181 65.686)"><path class="z" d="M2292.622,4774.327c.105.271-1.34,1.092-3.227,1.833s-3.506,1.125-3.612.855,1.338-1.092,3.227-1.833S2292.515,4774.057,2292.622,4774.327Z" transform="translate(-2285.778 -4774.24)"/></g><g transform="translate(16.228 59.435)"><path class="z" d="M2282.628,4768.938c.094.275-.87.852-2.152,1.288s-2.4.566-2.491.291.87-.851,2.152-1.288S2282.535,4768.664,2282.628,4768.938Z" transform="translate(-2277.978 -4768.794)"/></g><g transform="translate(14.816 28.674)"><path class="z" d="M2283.662,4744.515c-.066.279-1.745.113-3.683-.577s-3.348-1.611-3.224-1.87,1.692.215,3.575.878S2283.732,4744.229,2283.662,4744.515Z" transform="translate(-2276.747 -4741.994)"/></g><g transform="translate(43.888 28.05)"><path class="z" d="M2306.893,4741.511c.16.242-.785,1.148-2.109,2.021s-2.53,1.387-2.689,1.145.784-1.148,2.11-2.023S2306.734,4741.269,2306.893,4741.511Z" transform="translate(-2302.076 -4741.451)"/></g><g transform="translate(45.519 41.89)"><path class="z" d="M2308.149,4753.731c.06.284-.933.731-2.217,1s-2.372.252-2.432-.033.934-.73,2.217-1S2308.09,4753.447,2308.149,4753.731Z" transform="translate(-2303.498 -4753.508)"/></g><g transform="translate(45.923 55.024)"><path class="z" d="M2309.8,4767.785c-.122.264-1.551-.139-3.192-.9s-2.873-1.59-2.751-1.854,1.552.139,3.193.9S2309.924,4767.522,2309.8,4767.785Z" transform="translate(-2303.85 -4764.952)"/></g><g transform="translate(44.885 69.101)"><path class="z" d="M2306.329,4781.3c-.225.185-1.154-.575-2.074-1.7s-1.485-2.178-1.26-2.363,1.152.575,2.073,1.695S2306.552,4781.119,2306.329,4781.3Z" transform="translate(-2302.945 -4777.216)"/></g><g transform="translate(43.929 17.725)"><path class="z" d="M2305.714,4732.529c.178.224-.435,1-1.486,1.522s-2.036.559-2.11.282.69-.743,1.638-1.223S2305.533,4732.3,2305.714,4732.529Z" transform="translate(-2302.112 -4732.455)"/></g><g transform="translate(54.936 31.784)"><path class="z" d="M2317.515,4744.843c.1.268-1.126.941-2.8,1.17s-3.032-.079-3.013-.362,1.31-.458,2.869-.679S2317.419,4744.563,2317.515,4744.843Z" transform="translate(-2311.701 -4744.704)"/></g><g transform="translate(52.042 19.162)"><path class="z" d="M2315.253,4733.789c.13.255-1.085,1.122-2.812,1.67s-3.216.554-3.259.272,1.3-.745,2.938-1.274S2315.122,4733.524,2315.253,4733.789Z" transform="translate(-2309.181 -4733.707)"/></g><g transform="translate(54.755 49.86)"><path class="z" d="M2320.423,4762.152c0,.283-2.08.466-4.584.008s-4.387-1.352-4.291-1.617c.1-.282,2.06.149,4.479.582S2320.433,4761.854,2320.423,4762.152Z" transform="translate(-2311.544 -4760.453)"/></g><g transform="translate(53.262 64.507)"><path class="z" d="M2315.7,4778.682c-.174.226-1.7-.674-3.229-2.211s-2.423-3.066-2.2-3.239,1.462,1.016,2.942,2.5S2315.886,4778.45,2315.7,4778.682Z" transform="translate(-2310.243 -4773.214)"/></g><g transform="translate(15.108 4.253)"><path class="b" d="M2299.019,4720.723c.156.226-4.194,1.989-9.221,7.287-5.024,5.181-10.207,14.332-11.485,25.387a57.039,57.039,0,0,0,.693,15.555,118.649,118.649,0,0,0,2.914,12.482c1.009,3.515,1.935,6.33,2.559,8.281a19.524,19.524,0,0,1,.885,3.063,17.638,17.638,0,0,1-1.272-2.926c-.741-1.913-1.779-4.7-2.884-8.2a105.506,105.506,0,0,1-3.156-12.53,55.857,55.857,0,0,1-.783-15.844c1.3-11.309,6.729-20.629,11.995-25.78a32.964,32.964,0,0,1,6.878-5.376,21.042,21.042,0,0,1,2.105-1.094A2.5,2.5,0,0,1,2299.019,4720.723Z" transform="translate(-2277.002 -4720.717)"/></g><g transform="translate(36.327 4.686)"><path class="b" d="M2310.629,4793.4c-.228-.115,2.364-4.1,4.727-11.295a63.947,63.947,0,0,0,2.827-29.048,54.705,54.705,0,0,0-4.479-15.488,36.6,36.6,0,0,0-7.637-10.637,27.864,27.864,0,0,0-7.484-4.729c-1.946-.811-3.11-1-3.094-1.089a2.514,2.514,0,0,1,.86.065,15.622,15.622,0,0,1,2.382.642,25.877,25.877,0,0,1,7.827,4.552,35.985,35.985,0,0,1,8.021,10.779,53.775,53.775,0,0,1,4.646,15.76,61.76,61.76,0,0,1-3.166,29.437c-.593,1.815-1.358,3.372-1.928,4.774-.677,1.356-1.236,2.535-1.749,3.469A19.947,19.947,0,0,1,2310.629,4793.4Z" transform="translate(-2295.489 -4721.095)"/></g><g transform="translate(10.726 74.503)"><path class="z" d="M2273.184,4781.922h57.978l.356,11.6h-58.334Z" transform="translate(-2273.184 -4781.922)"/></g><g transform="translate(15.652 80.305)"><path class="z" d="M2277.476,4786.977l3.33,35.424h42.385l3.4-35.035Z" transform="translate(-2277.476 -4786.977)"/></g><g transform="translate(10.741 85.72)"><path class="aa" d="M2331.517,4792.221c0,.29-13.057.525-29.158.525s-29.162-.235-29.162-.525,13.054-.526,29.162-.526S2331.517,4791.93,2331.517,4792.221Z" transform="translate(-2273.197 -4791.694)"/></g><g transform="translate(18.431 93.519)"><path class="aa" d="M2324.635,4802.007a8.79,8.79,0,0,1-1.242,2.214,32.045,32.045,0,0,1-4.5,5.31l-.266.255-.264-.277a83.619,83.619,0,0,0-11.362-9.945l.641-.029-5.038,4.421-5.955,5.186-.33.287-.33-.278-9.681-8.139.563-.061-5.008,6.111a1.462,1.462,0,1,1-.348-.273l4.732-6.327.241-.323.324.262,9.824,7.965-.659.009c1.9-1.663,3.882-3.409,5.933-5.211,1.738-1.513,3.43-2.988,5.053-4.4l.311-.271.331.243A74.12,74.12,0,0,1,2318.917,4809l-.529-.021C2322.689,4805.077,2324.469,4801.881,2324.635,4802.007Z" transform="translate(-2279.897 -4798.49)"/></g></g><path class="ab" d="M2237.825,4558.84l3.61,6.6,6.6,3.61-6.6,3.609-3.61,6.6-3.61-6.6-6.6-3.609,6.6-3.61Z" transform="translate(-710.704 -4031.823)"/><path class="ab" d="M2065.4,4374.563l3.61,6.6,6.6,3.61-6.6,3.61-3.61,6.6-3.61-6.6-6.6-3.61,6.6-3.61Z" transform="translate(-736.186 -4059.056)"/><path class="ab" d="M1822.437,4671.225l3.61,6.6,6.6,3.61-6.6,3.609-3.61,6.6-3.61-6.6-6.6-3.609,6.6-3.61Z" transform="translate(-772.092 -4015.214)"/><g transform="translate(1614.49 525.895)"><path class="u" d="M2353.829,4557.861a41.2,41.2,0,1,1-29.132,12.067,41.069,41.069,0,0,1,29.132-12.067Zm27.311,13.888a38.624,38.624,0,1,0,11.312,27.311A38.5,38.5,0,0,0,2381.139,4571.749Z" transform="translate(-2312.63 -4557.861)"/><rect class="u" width="66.626" height="2.575" transform="translate(7.885 17.929)"/><rect class="u" width="79.821" height="2.575" transform="translate(1.288 39.91)"/><rect class="u" width="66.626" height="2.575" transform="translate(7.885 61.892)"/><path class="u" d="M2352.3,4557.861c8.192,0,15.577,4.677,20.893,12.238,5.225,7.43,8.456,17.67,8.456,28.96s-3.231,21.53-8.456,28.959c-5.317,7.563-12.7,12.238-20.893,12.238s-15.578-4.676-20.894-12.238c-5.225-7.429-8.456-17.67-8.456-28.959s3.231-21.53,8.456-28.96c5.316-7.562,12.7-12.238,20.894-12.238Zm18.792,13.717c-4.84-6.884-11.487-11.142-18.792-11.142s-13.953,4.258-18.793,11.142c-4.932,7.014-7.983,16.729-7.983,27.481s3.051,20.467,7.983,27.481c4.84,6.884,11.487,11.141,18.793,11.141s13.951-4.257,18.792-11.141c4.932-7.015,7.983-16.729,7.983-27.481S2376.027,4578.592,2371.094,4571.578Z" transform="translate(-2311.104 -4557.861)"/><path class="u" d="M2350.3,4557.861c4.074,0,7.613,4.813,10.045,12.595,2.294,7.342,3.713,17.456,3.713,28.6s-1.419,21.261-3.713,28.6c-2.432,7.782-5.972,12.595-10.045,12.595s-7.614-4.812-10.046-12.595c-2.294-7.342-3.713-17.456-3.713-28.6s1.419-21.262,3.713-28.6c2.432-7.781,5.972-12.595,10.046-12.595Zm7.592,13.359c-2.083-6.663-4.777-10.784-7.592-10.784s-5.51,4.121-7.592,10.784c-2.22,7.1-3.593,16.944-3.593,27.839s1.373,20.735,3.593,27.838c2.082,6.663,4.777,10.784,7.592,10.784s5.509-4.121,7.592-10.784c2.22-7.1,3.592-16.943,3.592-27.838S2360.107,4578.323,2357.887,4571.221Z" transform="translate(-2309.097 -4557.861)"/></g><path class="ac" d="M1997.222,4363.508c0-10.773-7.562-19.507-16.889-19.507a15.878,15.878,0,0,0-12.282,6.126,15.877,15.877,0,0,0-12.282-6.126c-9.327,0-16.889,8.733-16.889,19.507,0,0-1.174,23.662,27.365,32.513,0,0,23.418-.041,30.444-26.75C1997.47,4366.446,1997.222,4366.388,1997.222,4363.508Z" transform="translate(-753.375 -4063.572)"/><path class="ad" d="M2149.434,4611.766c-7.906-13.953-4.685-32.612-4.685-32.612h-28.612a67.607,67.607,0,0,1-2.637,18.617C2124.771,4602.185,2139.964,4608.089,2149.434,4611.766Z" transform="translate(-727.568 -4028.821)"/><ellipse class="j" cx="51.73" cy="61.619" rx="51.73" ry="61.619" transform="translate(1351.392 429.23)"/><path class="j" d="M2076.366,4556.648s-10.013-3.814-9.654-12.576a11.4,11.4,0,0,1,10.305-10.778c3.31-.3,7.122.709,10.114,5.336,0,0,4.768,14.5,5.369,16.641s-1.68,3.659-3.962,3.659S2076.366,4556.648,2076.366,4556.648Z" transform="translate(-734.484 -4035.605)"/><path class="j" d="M2185,4556.648s10.013-3.814,9.655-12.576a11.4,11.4,0,0,0-10.305-10.778c-3.311-.3-7.122.709-10.114,5.336,0,0-4.768,14.5-5.37,16.641s1.68,3.659,3.963,3.659S2185,4556.648,2185,4556.648Z" transform="translate(-719.4 -4035.605)"/><path class="ae" d="M2129.812,4515.045s15.413,33.275,54,39.926a72.1,72.1,0,0,0,3.06-20.907c0-34.031-23.16-61.62-51.73-61.62s-51.73,27.589-51.73,61.62c0,2.281.112,4.531.314,6.748C2096.547,4537.939,2120.086,4530.715,2129.812,4515.045Z" transform="translate(-732.016 -4044.59)"/><circle cx="3.804" cy="3.804" r="3.804" transform="translate(1370.029 510.393)"/><circle cx="3.804" cy="3.804" r="3.804" transform="translate(1421.759 510.393)"/><path class="g" d="M2133.407,4567.736a5.854,5.854,0,0,1-11.707,0" transform="translate(-726.357 -4030.508)"/><ellipse class="af" cx="59.337" cy="42.323" rx="59.337" ry="42.323" transform="translate(1346.066 349.498)"/><ellipse class="ae" cx="36.515" cy="34.233" rx="36.515" ry="34.233" transform="translate(1368.888 285.596)"/><rect class="m" width="48.687" height="6.086" rx="2.651" transform="translate(1382.582 347.215)"/><rect class="ag" width="56.294" height="7.037" rx="3.065" transform="translate(1376.007 429.146)"/><path class="ah" d="M2096.791,4448s6.667,17.045,19.178,24.275" transform="translate(-730.038 -4048.203)"/><path class="ah" d="M2114.8,4457.106s3.347,11.069,9.077,15.374" transform="translate(-727.376 -4046.858)"/><path class="ah" d="M2133.512,4486.55s-12.6,29.957-39.112,37.016" transform="translate(-730.391 -4042.506)"/><path class="ah" d="M2135.05,4506.8s8.309,17.2,24.276,26" transform="translate(-724.384 -4039.514)"/><g transform="translate(1351.392 487.19)"><circle class="g" cx="23.583" cy="23.583" r="23.583"/><circle class="g" cx="23.583" cy="23.583" r="23.583" transform="translate(54.012)"/><line class="m" x2="6.867" transform="translate(47.146 24.537)"/></g></g></svg>