<svg xmlns="http://www.w3.org/2000/svg" width="251.845" height="70" viewBox="0 0 251.845 70"><path d="M151.643,45.985c.329,8.75,8.162,17.547,17.147,17.547a14.164,14.164,0,0,0,9.032-2.752,8.852,8.852,0,0,0,3.41-7.2A8.568,8.568,0,0,0,179,47.49c-1.505-1.6-4.939-3.528-10.3-5.739-8.021-3.317-13.5-6.563-16.418-9.691A16.666,16.666,0,0,1,147.9,20.252a18.4,18.4,0,0,1,6.35-14.442c4.234-3.74,9.691-5.5,16.371-5.622,4.916-.094,16.065,1.153,19.734,3.481l-.047,16.865h-3.693A15.294,15.294,0,0,0,171.682,5.645a11.716,11.716,0,0,0-7.809,2.446A8.251,8.251,0,0,0,161,14.7a8.263,8.263,0,0,0,2.235,6c1.482,1.552,4.987,3.434,10.467,5.669q1.66.723,3.363,1.341c5.739,2.305,9.644,4.351,11.667,6.162a19.487,19.487,0,0,1,4.681,6.374,19.741,19.741,0,0,1,1.505,7.9q0,9.773-6.751,15.618c-4.493,3.9-10.609,5.857-18.253,5.857a53.852,53.852,0,0,1-23.075-4.916V46.032l4.8-.047Zm56.922.376c.329,8.726,8.162,17.524,17.124,17.524a13.935,13.935,0,0,0,9.032-2.753,8.793,8.793,0,0,0,3.434-7.174,8.543,8.543,0,0,0-2.258-6.116c-1.482-1.6-4.916-3.528-10.279-5.739-8.021-3.317-13.5-6.563-16.419-9.691a16.627,16.627,0,0,1-4.4-11.785,18.477,18.477,0,0,1,6.35-14.442c4.234-3.763,9.714-5.528,16.395-5.645,4.916-.094,16.066,1.176,19.711,3.481l-.023,16.865h-3.693a15.294,15.294,0,0,0-14.96-14.866A11.65,11.65,0,0,0,220.8,8.468a8.234,8.234,0,0,0-2.869,6.586,8.319,8.319,0,0,0,2.235,6.022c1.482,1.529,4.987,3.434,10.467,5.645.753.33,1.882.8,3.34,1.365,5.763,2.282,9.667,4.351,11.69,6.139a19.547,19.547,0,0,1,4.658,6.374,19.451,19.451,0,0,1,1.529,7.927q0,9.774-6.751,15.619C240.578,68.025,234.486,70,226.818,70a53.7,53.7,0,0,1-23.051-4.939l-.024-18.653ZM40.692,32.3c10.514-1.435,15.124-7.433,15.124-15.548,0-4.916-1.717-8.7-5.151-11.29-3.411-2.611-8.374-3.928-14.842-3.9L.565,1.576V5.34c4.257,0,7.668.494,7.668,2.305L8.185,62.779C6.421,64.5,2.352,64.732,0,64.732v3.857H36.623c10.632,0,21.5-3.928,22.7-17.053C60.379,39.822,53.3,32.742,40.692,32.3ZM23.9,5.927a2.087,2.087,0,0,0,.259-.047c1.505-.094,2.634-.141,3.34-.141,4.775,0,8.256,1.106,10.467,3.293,2.211,2.164,3.34,5.692,3.34,10.514,0,4.4-1.058,7.574-3.152,9.479-2.093,1.929-5.528,2.893-10.279,2.893H23.9V5.927Zm0,57.11V35.988H30.06c6.845,0,13.525,3.787,13.525,13.878,0,11.619-9.62,15.054-19.687,13.172Zm103.894-53.7Q118.477-.012,101.942,0,85.606,0,76.327,9.432T67.036,35.447q0,16.053,9.1,25.121t25.356,9.055q16.724,0,26.179-9.15t9.455-25.215q0-16.582-9.338-25.921ZM115.349,55.864c-3.363,5.339-7.88,8.021-13.5,8.021-5.48,0-9.856-2.682-13.125-8s-4.916-12.561-4.916-21.664c0-8.961,1.694-16.112,5.081-21.4,3.364-5.292,7.88-7.927,13.5-7.927,5.386,0,9.761,2.658,13.054,7.95q4.94,7.973,4.94,21.216C120.383,43.256,118.69,50.524,115.349,55.864Z" transform="translate(0 0)"/></svg>