<svg xmlns="http://www.w3.org/2000/svg" width="200.697" height="100" viewBox="0 0 200.697 100"><path d="M143.6,35.832c-.657.1-1.288,2.519-2.557,3.778-.928.909-2.086.852-2.7,1.976-.234.42-.158,1.136-.423,1.825-.518,1.376-2.342,1.5-2.342,3-.006,1.619,1.521,1.929,2.844,3.077,1.032.925,1.133,1.562,2.383,2.011,1.067.363,2.655-.824,4.085-.4,1.174.35,2.3.6,2.563,1.809.233,1.111-.016,2.834-1.439,2.636a15.584,15.584,0,0,0-5.117-.483c-3.084.35-6.6,1.357-6.947,4.795-.189,1.922,2.187,4.188,4.482,3.728,1.588-.313.836-2.184,1.7-3.093,1.133-1.165,7.553,4.065,13.522,4.065a7.8,7.8,0,0,0,6.237-2.579c.173-.148.385-.467.653-.486a2.283,2.283,0,0,1,.84.376c4.807,3.863,8.44,11.613,26.107,11.7a11.9,11.9,0,0,1,7.626,3.308c2.061,1.907,3.267,4.87,4.438,7.878,1.768,4.514,4.937,8.9,9.741,13.791.262.262,4.217,3.336,4.533,3.567a1.9,1.9,0,0,1,.24,1.114c-.117,2.929-.543,11.448,5.808,11.833,1.553.079,1.146-1.013,1.146-1.764,0-1.484-.275-2.958.508-4.476,1.07-2.089-2.269-3.052-2.172-7.569.069-3.368-2.759-2.794-4.2-5.36-.827-1.487-1.562-2.276-1.509-4.094.322-10.233-2.178-16.956-3.425-18.607-.972-1.247-1.777-1.742-.887-2.32,5.3-3.5,6.5-6.758,6.5-6.758,2.818-6.625,5.353-12.676,8.847-15.34a26.222,26.222,0,0,1,3.617-2.427c3.261-1.537,4.978-2.468,5.925-3.39,1.5-1.461,2.683-4.507,1.247-6.354-1.786-2.279-4.877-.47-6.24.338-9.744,5.783-11.18,15.984-14.555,21.843-2.692,4.681-7.07,8.118-10.984,8.4a19.539,19.539,0,0,1-9.248-1.758,46.538,46.538,0,0,1-12.84-8.462c-2.058-1.588-18.036-17.272-30.98-17.913,0,0-1.606-3.216-2.011-3.27-.947-.12-1.916,1.922-2.61,2.159-.653.217-1.752-2.213-2.412-2.105m-56.986,93.61a2.306,2.306,0,0,1-2.254-2.266l0-40.377H71.056v44.509a3.956,3.956,0,0,0,3.936,3.961h23.26a3.941,3.941,0,0,0,3.93-3.961V86.8H88.887l-.013,40.377a2.307,2.307,0,0,1-2.26,2.266M131.17,86.8H111.029a4.334,4.334,0,0,0-4.324,4.346v44.123h13.32V94.795a2.261,2.261,0,0,1,4.52-.035v40.509h13.266V94.759a2.221,2.221,0,0,1,2.254-2.187,2.247,2.247,0,0,1,2.257,2.222v40.475h13.32V91.145a4.336,4.336,0,0,0-4.327-4.346Zm-77.922,8.08a2.279,2.279,0,0,0-2.254-2.307h-2.26v24.516h2.26a2.249,2.249,0,0,0,2.254-2.276Zm8.93,28.209H48.734v12.181h-13.3V86.8h26.83a4.294,4.294,0,0,1,4.277,4.365v27.559a4.356,4.356,0,0,1-4.362,4.365m139.11,1.341a5,5,0,1,0,.085,0Zm5.991,5.095a5.929,5.929,0,1,1-6-5.962,5.937,5.937,0,0,1,6,5.962" transform="translate(-35.433 -35.493)"/><path d="M626.541,304.291c.925,0,1.411-.328,1.411-.985,0-.584-.47-.884-1.37-.884h-.265v1.869Zm3.406,3.832h-1.588l-2.042-2.718v2.718h-1.3v-6.871h1.364c1.853,0,2.837.7,2.837,2.039a2,2,0,0,1-1.392,1.922l-.095.035Zm-26.189-15.88V269.925a2.261,2.261,0,0,0-4.52.035v22.284Zm0,18.172V298.247h-4.52v12.168H585.943V266.291a4.334,4.334,0,0,1,4.324-4.346h22.461a4.335,4.335,0,0,1,4.331,4.346v44.123Z" transform="translate(-461.217 -210.639)"/></svg>