<svg xmlns="http://www.w3.org/2000/svg" width="208.019" height="100" viewBox="0 0 208.019 100"><defs><style>.a{fill:#db0026;fill-rule:evenodd;}.b{fill:#004526;}</style></defs><g transform="translate(0 0)"><path class="a" d="M184.1,50.035c-.989-1.317-1.16-3.646-3.166-3.853-1.947-.526-3.885-1.087-5.85-1.542L163.54,46.519l-1.352,6.221,18.665,2.434,4.868,3.247,12.714,1.352,5.951-2.163c-6.167-1.991-12.484-3.576-18.479-6.055A6.664,6.664,0,0,1,184.1,50.035Z" transform="translate(-49.387 -13.875)"/><path class="b" d="M181.184,44.4a3.664,3.664,0,0,0-1.554-.969c-.455-.215-.389-.657-.769-.786s-1.069.668-1.6.5-.489-1.16-.93-1.306-1.237.6-1.647.466-.494-1.157-.893-1.288-1.232.617-1.641.49-.436-1.147-.893-1.3-1.252.615-1.647.479-.449-1.133-.884-1.28-1.246.6-1.652.467-.532-1.17-.913-1.3-1.148.492-1.766.457c-4.286-.4-5.926-3.1-6.218-2.3-.286.781.894,2.683,2.377,3.325,1.183.514,13.95,4.049,14.285,4.207s1.132.52.845.986c-.443.6-1.691.007-2.008-.256s-.248-.364-.549-.445c-.684-.162-1.064,1.085-1.787.918-.659-.148-.612-1.471-1.281-1.626-.738-.179-1.073,1.076-1.775.912-.583-.132-.662-1.48-1.288-1.63-.718-.174-1.044,1.084-1.792.91-.643-.151-.608-1.466-1.28-1.628s-1.142,1.06-1.777.916-.73-1.491-1.3-1.625-1.035.554-1.813.655c0,0-2.234.6-5.765-3.085s-4.989-4.4-7-2.9c-3.287,2.449-5.329.83-5.924.1a1.175,1.175,0,0,1,.034-1.6s1.044,1.612,2.358,1.64c2.118.063,3.715-2.826,7.345-2.878,4.6-.165,5.8,1.468,7.054,1.6a3.121,3.121,0,0,0,2.358-.542h0c.652-.232,1.219,1.028,1.9.774.722-.272.194-1.542.971-1.834.727-.26,1.2,1.016,1.9.757.731-.268.265-1.572.968-1.826.723-.261,1.145,1.028,1.9.753s.268-1.56.953-1.82c.708-.258,1.22,1.01,1.915.762.659-.235.282-1.586.968-1.832.712-.256,1.172,1.017,1.931.738.624-.218.279-1.57.926-1.815s1.246,1.012,1.919.76c.631-.232.262-1.576.933-1.827.711-.256,1.259,1,1.931.76s.16-1.323,1.028-1.753c0,0,1.2-.395,1.125-1.276a2.8,2.8,0,0,0-2.235-2.431c-1.9-.382-16.919,3.771-17.113,3.532-1.382-2.731-3.153-1.972-3.423-1.911a5.568,5.568,0,0,1-3.808.07c-3.646-1.651-6.558,2.547-8.555,1.994a6.7,6.7,0,0,0-4.017.044,4.93,4.93,0,0,1-4.276.329c-18.75-6.4-33.4-.805-33.4-.805-8.262,2.76-9.32,0-9.32,0s-2.719-3.694,16.426-8.1C138.545,12.422,139.375,1.961,139.05,1.3c-.452-.959-.624.171-1.53,1.211a1.406,1.406,0,0,1-1.644.437c-.866-.415-1.42.573-1.42.573s-1.114,1.729-2.1.746c-.947-.947-2.2,1.19-2.673,1.274-.562.1-.837-.176-1.591-.522-1.131-.5-2.344,1.56-2.965,1.706-.951.218-1.619-1.121-2.436-.556-2.446,1.689-2.83,1.924-3.489,1.267-.486-.5-.558-1.036-2.191.528-1.39,1.333-2.056,1.582-2.614.735-.574-.853-.427-2.018-2.816.275-1.14,1.095-1.723,1.116-2.377.624-.492-.37-.489-2.133-2.2-.536-1.553,1.436-2.681,2.066-3.12.791-.486-1.433-2.316.264-2.739.664-.439.4-1.38,1.456-2.039.365s-2.237.541-3.176,1.58c-.724.807-1.309.184-2.074-.328-.868-.6-3.468,3.033-3.7,3.25s-.419,0-1.014-.5c-.915-.776-3.384,3.535-3.784,3.816,0,0-.169.372-.842-.27-.957-.911-6.042,5.782-7.961,13.354a25.948,25.948,0,0,0,1.456,17.152,2.078,2.078,0,0,0,1.675-.758l.761-1.716c.617-1.43,1.629-.981,1.629-.981l-2.4,7.137a3.967,3.967,0,0,0,.688,3.527,13.516,13.516,0,0,0,1.966,2.7c1.946,1.833,1.747-.335,1.8-.605.228-1.161,1.513-.27,2.522.287,1.831,1.028,1.628-1.242,2.029-1.982.279-.53,1.179-.554,2.156.265.76.636,1.517-1.518,1.517-1.518.949-4.59-1.281-5.121-2.487-5.188l-2.441-.111a11.231,11.231,0,0,1,.415-1.352l.109-.463c2.662-6.635-1.787-7.915-3.118-7.81-1.468.131-1.366-.8-1.366-.8S91.5,37.975,90.006,46.5c0,0-.3,1.485-.474,2.26l2.21.258c1.9.237,2.239,2.487,2.239,2.487s7,1.849,10.963,1.11c0,0,1.773-.422,2.265-1.526a11.371,11.371,0,0,1,10.071-6.309s.264.783-.935,1.192c-1.436.484-6.224.864-7.219,6.364v.022a3.608,3.608,0,0,0,2.091,3.715c1.668.753,2.255,3.789,2.6,4.609.971,2.328,2.425.1,2.425.1s.922-1.88,1.712-.837c1.336,1.758,1.957.872,2.26-.247.332-1.208.816-1.735,2.215-.266.6.638,1.77.145,1.887-.946.248-2.4,1.87-.493,2.1-.4.278.106,1.977-.277,1.026-2.986,0,0-1.285-2.582-7.077-3.7-1.359-.258-1.143-1.242-1.143-1.242l1.276.18c.38.062,3.749.436,4.108.493,14.128,1.394,24.849-3.4,25.171-3.74,10.975,2.1,25.9,1.386,28.7.377,2.816-.993,3.026-2.637,2.7-3.076ZM158.523,26.888a1.771,1.771,0,0,1,.646-.679c.852-.484,1.4,1.031,1.292,1.087l-.033.013s0,.008,0,.01a7.585,7.585,0,0,1-1.939.424C158.16,27.516,158.523,26.888,158.523,26.888Zm-6.24.479a1.4,1.4,0,0,1,.622-.4,2.014,2.014,0,0,1,1.828.35c.933.593.909,1.056.909,1.056a1.174,1.174,0,0,1-.119.046,28.178,28.178,0,0,1-3.449.6,1.329,1.329,0,0,1,.209-1.651Zm-51.726-13.42c.466.359.02,2.428-.313,2.123L97.85,14.8s2.23-1.2,2.707-.856Zm-3.895,1.321c.471.351.03,2.424-.3,2.115l-2.388-1.269S96.189,14.909,96.662,15.268Zm-1.347,4.044c.473.353.03,2.43-.308,2.13l-2.392-1.285S94.839,18.961,95.315,19.313Zm-2.279,5.43L90.64,23.471s2.227-1.207,2.7-.852S93.361,25.048,93.035,24.743Zm-.451,4.1L90.2,27.566s2.222-1.2,2.7-.854.032,2.417-.308,2.126ZM92.54,16.71c.475.353.027,2.417-.307,2.123l-2.4-1.276s2.232-1.205,2.7-.847Zm-2.077,3.153c.469.352.025,2.417-.306,2.123l-2.392-1.272s2.224-1.209,2.7-.852ZM86.194,24.81s2.232-1.211,2.7-.852.028,2.419-.306,2.12Zm1.833,5.181-2.386-1.277s2.226-1.2,2.7-.845S88.367,30.288,88.027,29.991Zm-1.7-8.692c.472.345.026,2.417-.308,2.117L83.633,22.14S85.847,20.942,86.325,21.3Zm-2.151,4.172c.474.351.03,2.431-.313,2.125l-2.386-1.27S83.7,25.13,84.174,25.471Zm-3.145,4.942s2.226-1.2,2.7-.845.023,2.424-.3,2.123ZM85.3,35.087l-2.39-1.273s2.227-1.206,2.7-.852.021,2.422-.31,2.126Zm3.427,2.777L86.334,36.6s2.228-1.206,2.7-.856S89.051,38.17,88.724,37.864Zm1.071-4.334L87.4,32.252s2.227-1.2,2.7-.854S90.129,33.82,89.795,33.53Zm3.18,6.2-2.386-1.272s2.215-1.2,2.693-.85S93.314,40.026,92.975,39.734Zm1.147-3.993L91.734,34.47s2.222-1.2,2.694-.843S94.461,36.047,94.122,35.741Zm.791-3.773-2.388-1.274s2.223-1.2,2.7-.845S95.246,32.265,94.913,31.968Zm3.36,7.284-2.389-1.28s2.224-1.195,2.7-.848S98.61,39.554,98.273,39.252Zm1.035-3.975L96.92,34.008s2.227-1.21,2.7-.852c.466.341.018,2.418-.313,2.121Zm.866-4.211-2.388-1.273s2.224-1.193,2.7-.847.021,2.419-.313,2.119Zm3.356,7.441-2.4-1.273s2.227-1.2,2.705-.854.016,2.433-.309,2.126Zm.8-4.252-2.388-1.279s2.227-1.2,2.7-.851.025,2.417-.31,2.129Zm.833-4.366-2.389-1.274s2.224-1.2,2.7-.85.025,2.424-.31,2.124Zm3.6,6.937-2.391-1.261s2.227-1.2,2.694-.854S109.1,37.127,108.761,36.825Zm.655-4.188-2.4-1.266s2.225-1.2,2.7-.855c.486.355.03,2.433-.3,2.121Zm.829-4.1-2.4-1.266s2.232-1.209,2.7-.861.025,2.433-.3,2.126Zm3.661,7.408-2.391-1.274s2.22-1.2,2.7-.852.027,2.419-.308,2.126Zm.652-3.91-2.392-1.269s2.229-1.213,2.7-.852c.472.342.026,2.422-.306,2.12Zm.787-4.172-2.395-1.27s2.227-1.216,2.7-.853S115.685,28.153,115.345,27.858Zm3.312,8.155-2.385-1.272s2.223-1.208,2.7-.848S118.993,36.31,118.657,36.013Zm.789-4.2-2.4-1.269s2.232-1.211,2.705-.852S119.776,32.113,119.446,31.815Zm.9-4.179-2.393-1.27s2.228-1.211,2.7-.85.025,2.422-.31,2.12Zm3.3,8.378-2.392-1.278s2.224-1.2,2.7-.841.033,2.416-.3,2.119Zm.765-3.965-2.386-1.277s2.222-1.191,2.694-.852C125.185,30.276,124.739,32.35,124.4,32.048Zm.9-4.059-2.384-1.271s2.224-1.2,2.7-.853.019,2.424-.315,2.124Zm3.013,8.623-2.392-1.285s2.227-1.192,2.7-.836.031,2.418-.309,2.122Zm.845-3.846-2.39-1.268s2.23-1.2,2.7-.85.016,2.423-.309,2.119Zm.913-3.928-2.4-1.266s2.229-1.2,2.705-.86.016,2.417-.309,2.126Zm3.727,4.758-2.388-1.259s2.223-1.207,2.7-.861S134.139,33.9,133.805,33.6Z" transform="translate(-23.794 -0.936)"/><path d="M49.142,97.868c-.5-1.326-1.448-1.9-3.185-1.922-.158,0-8.194.007-8.194.007l-11.9,32.387h5.79a2.829,2.829,0,0,0,1.38-.23,4.04,4.04,0,0,0,1.839-2.265c0,.011,1.618-4.512,1.73-4.808l11.966,0c.25.763,2.431,7.293,2.431,7.293H58.84l-4.971-15.761Zm-2.413,16.517H38.665c.87-2.381,3.035-8.405,3.96-10.844C43.424,106,46.708,114.305,46.729,114.385Zm58.8-18.691h0c-9.269.013-15.992,6.97-15.992,16.536,0,9.373,6.872,16.444,16,16.444a16.491,16.491,0,0,0,0-32.98m.232,25.755c-4.725,0-8.428-4.086-8.428-9.306,0-5.172,3.623-9.068,8.422-9.068,4.764,0,8.219,3.811,8.219,9.068C113.972,117.451,110.439,121.448,105.759,121.448Zm37.007-12.124-.3-.089c.008,0-3.014-.915-3.022-.924l-.451-.16c-2.469-.892-4.222-1.64-4.222-3.077v-.106c.245-2.386,4.674-2.411,4.716-2.411a16.531,16.531,0,0,1,6.7,1.329l.051.019.1.03a3.488,3.488,0,0,0,1.419.04l.658-.249c.945-.52,1.885-3.273,2.246-4.433l.117-.372-.291-.267a11.1,11.1,0,0,0-3.326-1.619,24.115,24.115,0,0,0-6.191-1.11l-1.791-.008c-9.351,0-12.92,5.77-13.034,9.646-.077,3.861,2.121,5.848,5.443,7.653a31.947,31.947,0,0,0,5.769,1.993c-.009-.008,1.906.559,1.906.559,3.483,1.094,4.814,2.309,4.567,4.194-.111.623-1.288,1.654-3.963,1.654a17.046,17.046,0,0,1-5.787-.981A20.394,20.394,0,0,1,131.2,119.2l-.049-.03-.1-.044a3.476,3.476,0,0,0-1.481-.258l-.736.158c-1.074.4-2.567,3.128-3.164,4.28l-.235.455.406.322a34.542,34.542,0,0,0,3.145,2.2,19.678,19.678,0,0,0,5.73,2.033,24.292,24.292,0,0,0,4.509.366c7.246,0,12.509-3.67,13.115-9.135.263-4.959-2.779-8.194-9.572-10.221Zm15.49-13.331a4.46,4.46,0,0,0-2.79.867,1.957,1.957,0,0,0-.637,1.477l0,5.124,9.886-.007v24.9l8.1-.007V103.453c1.08,0,6.363,0,6.363,0a4.529,4.529,0,0,0,2.788-.871,1.985,1.985,0,0,0,.639-1.481V95.993ZM19.347,121.022H10.256c0-1.194-.025-22.076-.025-22.076a2.8,2.8,0,0,0-.826-2.152,3.834,3.834,0,0,0-2.681-.812l-4.777-.011.012,32.368H22.226l.014-5.144c0-.658-.281-2.173-2.893-2.173Zm57.945-18.149a15.339,15.339,0,0,1,5.176.427,3.811,3.811,0,0,0,2.234.154l.646-.287c.907-.558,1.556-3.4,1.862-5.043l.07-.384L86.95,97.5a14.584,14.584,0,0,0-3.275-1.032,23.923,23.923,0,0,0-6.224-.8h-.13c-6.707,0-16.807,4.427-17.1,16.617v.069c.289,12.194,10.39,16.62,17.1,16.62l.125,0a24.315,24.315,0,0,0,6.224-.81,14.356,14.356,0,0,0,3.278-1.029l.328-.232-.07-.386c-.306-1.649-.955-4.488-1.862-5.05v0l-.644-.284a3.878,3.878,0,0,0-2.248.167,15.605,15.605,0,0,1-5.188.421c-5.08-.5-8.131-3.954-8.361-9.479.229-5.473,3.281-8.929,8.384-9.422Zm129.3,25.451a3.238,3.238,0,0,0,3.376-3.252l-.024-4.062-14.271.007s.024-4.656.024-5.427h11.781l-.02-7.488s-10.573.013-11.74.013c0-.886,0-3.764,0-4.655,1.166,0,10.815-.013,10.815-.013a4.209,4.209,0,0,0,2.786-.866,3.39,3.39,0,0,0,.639-2.308V96h-22.45l0,32.351Z" transform="translate(-1.947 -28.982)"/></g></svg>