<svg xmlns="http://www.w3.org/2000/svg" width="131.97" height="100" viewBox="0 0 131.97 100"><defs><style>.a{fill:#d52b1e;}.b{fill:#fdc82f;}.c{fill:#fff;}</style></defs><path class="a" d="M6.666,0A6.666,6.666,0,0,0,0,6.666V93.334A6.666,6.666,0,0,0,6.666,100H125.3a6.666,6.666,0,0,0,6.667-6.666V6.665A6.667,6.667,0,0,0,125.3,0H6.666"/><path class="b" d="M75.411,64.147c1.8-13.278,7.715-37.227,19-37.227,13.18,0,28.666,44.273,28.662,80.926H110.924c0-38.444-9.417-73.083-16.192-73.085-7.068,0-13.262,23.562-13.262,68.454H69.333c0-44.892-6.157-68.454-13.262-68.454-6.763,0-16.173,34.647-16.173,73.085H27.744C27.755,71.161,43.2,26.916,56.405,26.92c11.274,0,17.2,23.946,19.006,37.227" transform="translate(-19.608 -19.025)"/><path class="a" d="M163.2,218.545h55.985V204.4H163.2v14.148Z" transform="translate(-115.336 -144.454)"/><path class="c" d="M153.409,219.869h3.523v-11.59h-3.523Zm16.478-11.59h2.4l-.815,3.159h-1.745l.161-3.159M176.42,210c2.343,0,4.545.591,4.555,2.892H177.63c0-.792-.463-1.153-1.243-1.153-.463,0-1.09.192-1.09.919,0,1.205,1.907.964,3.525,1.445,1.454.431,2.461,1.3,2.461,2.7,0,2.146-1.683,3.333-4.863,3.346-3.335.013-4.59-1.189-4.6-3.346h3.389a1.183,1.183,0,0,0,1.221,1.3c.856,0,1.244-.325,1.244-.931,0-1.26-2.337-1.227-3.715-1.677a2.411,2.411,0,0,1-1.789-2.477c0-1.232.924-3.015,4.249-3.015m-72.148,6.36a4.91,4.91,0,0,1-4.88,3.8,5.026,5.026,0,0,1-5.065-5.33c0-3.147,1.948-5.326,5.065-5.329a4.737,4.737,0,0,1,4.9,3.806h-3.3a1.652,1.652,0,0,0-1.6-1.235c-1.455,0-1.838,1.541-1.838,2.757s.383,2.758,1.838,2.758a1.647,1.647,0,0,0,1.6-1.226h3.283m-24.3-8.076h4.209l1.832,6.847,1.832-6.847h4.211l1.841,11.875H90.421l-.917-6.94-1.9,6.94H84.413l-1.9-6.94-.918,6.94H78.122l1.846-11.875m53.986,5.911v5.679h-3.483V209.746h3.483v.791a4.863,4.863,0,0,1,3.486-1.04c1.963,0,3.544,1.312,3.545,2.689v7.686h-3.507V214.3a1.741,1.741,0,0,0-1.73-1.68,1.851,1.851,0,0,0-1.794,1.575m31.072-3.442v-2.471h3.522v11.59h-3.522v-.562a3.364,3.364,0,0,1-2.588.844c-1.708,0-4.422-.949-4.424-5.027S160.727,210,162.659,210A3.321,3.321,0,0,1,165.026,210.75Zm-3.656,4.374c0,1.585.738,2.6,1.949,2.6a1.867,1.867,0,0,0,1.708-.977V213.7a1.69,1.69,0,0,0-1.708-1.166c-1.213,0-1.949,1-1.949,2.586m-42.592-.3a5.313,5.313,0,1,1,5.313,5.329A5.014,5.014,0,0,1,118.778,214.827Zm7.332,0c0-1.216-.421-2.757-2.019-2.757s-2.019,1.541-2.018,2.757.421,2.758,2.018,2.758,2.019-1.541,2.019-2.758M105.5,208.28h6.052c3.787,0,6.367,2.352,6.367,5.937s-2.58,5.938-6.367,5.938H105.5Zm4,9.068h1.83c1.185,0,2.629-.723,2.629-3.13s-1.443-3.13-2.629-3.13H109.5v6.26m37.764-7.85c2.5,0,4.56.917,4.721,2.936v7.436h-3.525v-1a4.509,4.509,0,0,1-3.25,1.284,3.187,3.187,0,0,1-3.241-3.082c0-1.663,1.024-3.511,5.125-3.51,1.057,0,1.365-.416,1.366-.911,0-.608-.7-.948-1.287-.948s-1.253.244-1.253.88h-3.3C142.62,211.088,143.623,209.5,147.267,209.5Zm-.2,5.706c-.813,0-1.565.434-1.565,1.266,0,.538.318,1,1.15,1a1.76,1.76,0,0,0,1.807-1.45V215.1a3.887,3.887,0,0,1-1.391.107" transform="translate(-55.211 -147.197)"/><path class="b" d="M365.923,272.063h2.164c1.072,0,1.785.576,1.785,1.336a1.233,1.233,0,0,1-1.209,1.22v.023c1.025.345,1.175,1.059,1.187,2.026h-.967c-.034-1.163-.288-1.67-1.312-1.67h-.8v1.67h-.852Zm.852,2.2h1.014c.794,0,1.117-.276,1.117-.795,0-.392-.242-.668-.978-.668h-1.152Zm.921-3.8a3.953,3.953,0,1,1-2.8,1.158,3.953,3.953,0,0,1,2.8-1.158Zm0,7.5a3.535,3.535,0,1,0-3.535-3.535,3.536,3.536,0,0,0,3.535,3.535" transform="translate(-257.063 -191.145)"/></svg>